<?xml version="1.0" encoding="utf-8" standalone="no"?>
<!DOCTYPE svg PUBLIC "-//W3C//DTD SVG 1.1//EN"
  "http://www.w3.org/Graphics/SVG/1.1/DTD/svg11.dtd">
<svg xmlns:xlink="http://www.w3.org/1999/xlink" width="619.2pt" height="160.159688pt" viewBox="0 0 619.2 160.159688" xmlns="http://www.w3.org/2000/svg" version="1.1">
 <metadata>
  <rdf:RDF xmlns:dc="http://purl.org/dc/elements/1.1/" xmlns:cc="http://creativecommons.org/ns#" xmlns:rdf="http://www.w3.org/1999/02/22-rdf-syntax-ns#">
   <cc:Work>
    <dc:type rdf:resource="http://purl.org/dc/dcmitype/StillImage"/>
    <dc:date>2023-12-14T23:15:40.138630</dc:date>
    <dc:format>image/svg+xml</dc:format>
    <dc:creator>
     <cc:Agent>
      <dc:title>Matplotlib v3.7.1, https://matplotlib.org/</dc:title>
     </cc:Agent>
    </dc:creator>
   </cc:Work>
  </rdf:RDF>
 </metadata>
 <defs>
  <style type="text/css">*{stroke-linejoin: round; stroke-linecap: butt}</style>
 </defs>
 <g id="figure_1">
  <g id="patch_1">
   <path d="M 0 160.159688 
L 619.2 160.159688 
L 619.2 0 
L 0 0 
z
" style="fill: #ffffff"/>
  </g>
  <g id="axes_1">
   <g id="patch_2">
    <path d="M 54 126.94 
L 307.636364 126.94 
L 307.636364 29.92 
L 54 29.92 
z
" style="fill: #ffffff"/>
   </g>
   <g id="matplotlib.axis_1">
    <g id="xtick_1">
     <g id="line2d_1">
      <defs>
       <path id="m3b8d96e0b5" d="M 0 0 
L 0 3.5 
" style="stroke: #000000; stroke-width: 0.8"/>
      </defs>
      <g>
       <use xlink:href="#m3b8d96e0b5" x="58.170037" y="126.94" style="stroke: #000000; stroke-width: 0.8"/>
      </g>
     </g>
     <g id="text_1">
      <!-- 0 -->
      <g transform="translate(55.625037 140.01875) scale(0.08 -0.08)">
       <defs>
        <path id="DejaVuSans-30" d="M 2034 4250 
Q 1547 4250 1301 3770 
Q 1056 3291 1056 2328 
Q 1056 1369 1301 889 
Q 1547 409 2034 409 
Q 2525 409 2770 889 
Q 3016 1369 3016 2328 
Q 3016 3291 2770 3770 
Q 2525 4250 2034 4250 
z
M 2034 4750 
Q 2819 4750 3233 4129 
Q 3647 3509 3647 2328 
Q 3647 1150 3233 529 
Q 2819 -91 2034 -91 
Q 1250 -91 836 529 
Q 422 1150 422 2328 
Q 422 3509 836 4129 
Q 1250 4750 2034 4750 
z
" transform="scale(0.015625)"/>
       </defs>
       <use xlink:href="#DejaVuSans-30"/>
      </g>
     </g>
    </g>
    <g id="xtick_2">
     <g id="line2d_2">
      <g>
       <use xlink:href="#m3b8d96e0b5" x="180.818182" y="126.94" style="stroke: #000000; stroke-width: 0.8"/>
      </g>
     </g>
     <g id="text_2">
      <!-- 500 -->
      <g transform="translate(173.183182 140.01875) scale(0.08 -0.08)">
       <defs>
        <path id="DejaVuSans-35" d="M 691 4666 
L 3169 4666 
L 3169 4134 
L 1269 4134 
L 1269 2991 
Q 1406 3038 1543 3061 
Q 1681 3084 1819 3084 
Q 2600 3084 3056 2656 
Q 3513 2228 3513 1497 
Q 3513 744 3044 326 
Q 2575 -91 1722 -91 
Q 1428 -91 1123 -41 
Q 819 9 494 109 
L 494 744 
Q 775 591 1075 516 
Q 1375 441 1709 441 
Q 2250 441 2565 725 
Q 2881 1009 2881 1497 
Q 2881 1984 2565 2268 
Q 2250 2553 1709 2553 
Q 1456 2553 1204 2497 
Q 953 2441 691 2322 
L 691 4666 
z
" transform="scale(0.015625)"/>
       </defs>
       <use xlink:href="#DejaVuSans-35"/>
       <use xlink:href="#DejaVuSans-30" x="63.623047"/>
       <use xlink:href="#DejaVuSans-30" x="127.246094"/>
      </g>
     </g>
    </g>
    <g id="xtick_3">
     <g id="line2d_3">
      <g>
       <use xlink:href="#m3b8d96e0b5" x="303.466327" y="126.94" style="stroke: #000000; stroke-width: 0.8"/>
      </g>
     </g>
     <g id="text_3">
      <!-- 1K -->
      <g transform="translate(298.298202 140.01875) scale(0.08 -0.08)">
       <defs>
        <path id="DejaVuSans-31" d="M 794 531 
L 1825 531 
L 1825 4091 
L 703 3866 
L 703 4441 
L 1819 4666 
L 2450 4666 
L 2450 531 
L 3481 531 
L 3481 0 
L 794 0 
L 794 531 
z
" transform="scale(0.015625)"/>
        <path id="DejaVuSans-4b" d="M 628 4666 
L 1259 4666 
L 1259 2694 
L 3353 4666 
L 4166 4666 
L 1850 2491 
L 4331 0 
L 3500 0 
L 1259 2247 
L 1259 0 
L 628 0 
L 628 4666 
z
" transform="scale(0.015625)"/>
       </defs>
       <use xlink:href="#DejaVuSans-31"/>
       <use xlink:href="#DejaVuSans-4b" x="63.623047"/>
      </g>
     </g>
    </g>
   </g>
   <g id="matplotlib.axis_2">
    <g id="ytick_1">
     <g id="line2d_4">
      <defs>
       <path id="m749572db89" d="M 0 0 
L -3.5 0 
" style="stroke: #000000; stroke-width: 0.8"/>
      </defs>
      <g>
       <use xlink:href="#m749572db89" x="54" y="122.619181" style="stroke: #000000; stroke-width: 0.8"/>
      </g>
     </g>
     <g id="text_4">
      <!-- 2 -->
      <g transform="translate(41.91 125.658556) scale(0.08 -0.08)">
       <defs>
        <path id="DejaVuSans-32" d="M 1228 531 
L 3431 531 
L 3431 0 
L 469 0 
L 469 531 
Q 828 903 1448 1529 
Q 2069 2156 2228 2338 
Q 2531 2678 2651 2914 
Q 2772 3150 2772 3378 
Q 2772 3750 2511 3984 
Q 2250 4219 1831 4219 
Q 1534 4219 1204 4116 
Q 875 4013 500 3803 
L 500 4441 
Q 881 4594 1212 4672 
Q 1544 4750 1819 4750 
Q 2544 4750 2975 4387 
Q 3406 4025 3406 3419 
Q 3406 3131 3298 2873 
Q 3191 2616 2906 2266 
Q 2828 2175 2409 1742 
Q 1991 1309 1228 531 
z
" transform="scale(0.015625)"/>
       </defs>
       <use xlink:href="#DejaVuSans-32"/>
      </g>
     </g>
    </g>
    <g id="ytick_2">
     <g id="line2d_5">
      <g>
       <use xlink:href="#m749572db89" x="54" y="100.323933" style="stroke: #000000; stroke-width: 0.8"/>
      </g>
     </g>
     <g id="text_5">
      <!-- 52 -->
      <g transform="translate(36.82 103.363308) scale(0.08 -0.08)">
       <use xlink:href="#DejaVuSans-35"/>
       <use xlink:href="#DejaVuSans-32" x="63.623047"/>
      </g>
     </g>
    </g>
    <g id="ytick_3">
     <g id="line2d_6">
      <g>
       <use xlink:href="#m749572db89" x="54" y="78.028686" style="stroke: #000000; stroke-width: 0.8"/>
      </g>
     </g>
     <g id="text_6">
      <!-- 102 -->
      <g transform="translate(31.73 81.068061) scale(0.08 -0.08)">
       <use xlink:href="#DejaVuSans-31"/>
       <use xlink:href="#DejaVuSans-30" x="63.623047"/>
       <use xlink:href="#DejaVuSans-32" x="127.246094"/>
      </g>
     </g>
    </g>
    <g id="ytick_4">
     <g id="line2d_7">
      <g>
       <use xlink:href="#m749572db89" x="54" y="55.733438" style="stroke: #000000; stroke-width: 0.8"/>
      </g>
     </g>
     <g id="text_7">
      <!-- 152 -->
      <g transform="translate(31.73 58.772813) scale(0.08 -0.08)">
       <use xlink:href="#DejaVuSans-31"/>
       <use xlink:href="#DejaVuSans-35" x="63.623047"/>
       <use xlink:href="#DejaVuSans-32" x="127.246094"/>
      </g>
     </g>
    </g>
    <g id="ytick_5">
     <g id="line2d_8">
      <g>
       <use xlink:href="#m749572db89" x="54" y="33.43819" style="stroke: #000000; stroke-width: 0.8"/>
      </g>
     </g>
     <g id="text_8">
      <!-- 202 -->
      <g transform="translate(31.73 36.477565) scale(0.08 -0.08)">
       <use xlink:href="#DejaVuSans-32"/>
       <use xlink:href="#DejaVuSans-30" x="63.623047"/>
       <use xlink:href="#DejaVuSans-32" x="127.246094"/>
      </g>
     </g>
    </g>
   </g>
   <g id="line2d_9">
    <path d="M 65.528926 38.164783 
L 67.981889 39.948402 
L 70.434851 40.840212 
L 72.887814 40.840212 
L 75.340777 40.840212 
L 77.79374 40.66185 
L 80.246703 42.44547 
L 82.699666 41.55366 
L 85.152629 41.55366 
L 87.605592 41.55366 
L 90.058555 41.55366 
L 92.511517 34.33 
L 94.96448 34.33 
L 97.417443 34.33 
L 99.870406 34.33 
L 102.323369 34.33 
L 104.776332 34.33 
L 107.229295 34.33 
L 109.682258 35.132629 
L 112.135221 35.132629 
L 114.588184 35.132629 
L 117.041146 42.356289 
L 119.494109 42.356289 
L 121.947072 41.55366 
L 124.400035 41.55366 
L 126.852998 41.55366 
L 129.305961 37.986421 
L 131.758924 37.986421 
L 134.211887 37.986421 
L 136.66485 37.986421 
L 139.117813 37.986421 
L 141.570775 39.234954 
L 144.023738 39.234954 
L 146.476701 39.234954 
L 148.929664 39.234954 
L 151.382627 39.234954 
L 153.83559 37.986421 
L 156.288553 37.986421 
L 158.741516 37.986421 
L 161.194479 37.986421 
L 163.647442 37.986421 
L 166.100404 34.33 
L 168.553367 34.33 
L 171.00633 34.33 
L 173.459293 34.33 
L 175.912256 34.865086 
L 178.365219 38.521507 
L 180.818182 38.521507 
L 183.271145 38.521507 
L 185.724108 38.521507 
L 188.177071 37.986421 
L 190.630033 41.55366 
L 193.082996 41.55366 
L 195.535959 41.55366 
L 197.988922 41.55366 
L 200.441885 41.55366 
L 202.894848 43.33728 
L 205.347811 43.33728 
L 207.800774 43.33728 
L 210.253737 43.33728 
L 212.706699 43.33728 
L 215.159662 37.986421 
L 217.612625 37.986421 
L 220.065588 37.986421 
L 222.518551 37.986421 
L 224.971514 37.986421 
L 227.424477 41.55366 
L 229.87744 41.55366 
L 232.330403 41.55366 
L 234.783366 41.55366 
L 237.236328 41.55366 
L 239.689291 34.33 
L 242.142254 34.33 
L 244.595217 34.33 
L 247.04818 34.33 
L 249.501143 34.33 
L 251.954106 34.33 
L 254.407069 34.33 
L 256.860032 34.33 
L 259.312995 34.33 
L 261.765957 34.33 
L 264.21892 37.986421 
L 266.671883 37.986421 
L 269.124846 37.986421 
L 271.577809 37.986421 
L 274.030772 37.986421 
L 276.483735 39.77004 
L 278.936698 39.77004 
L 281.389661 39.77004 
L 283.842624 39.77004 
L 286.295586 39.77004 
L 288.748549 37.986421 
L 291.201512 37.986421 
L 293.654475 37.986421 
L 296.107438 38.253964 
" clip-path="url(#pf93932658f)" style="fill: none; stroke: #d62728; stroke-linecap: square"/>
   </g>
   <g id="line2d_10">
    <path d="M 65.528926 121.905733 
L 67.981889 121.816552 
L 70.434851 121.905733 
L 72.887814 121.905733 
L 75.340777 121.727371 
L 77.79374 122.173276 
L 80.246703 122.262457 
L 82.699666 122.440819 
L 85.152629 122.351638 
L 87.605592 122.53 
L 90.058555 122.53 
L 92.511517 122.440819 
L 94.96448 121.816552 
L 97.417443 121.816552 
L 99.870406 121.905733 
L 102.323369 121.816552 
L 104.776332 119.319484 
L 107.229295 116.822417 
L 109.682258 113.790263 
L 112.135221 110.133842 
L 114.588184 106.29906 
L 117.041146 104.961345 
L 119.494109 103.980354 
L 121.947072 103.801992 
L 124.400035 104.693802 
L 126.852998 105.228888 
L 129.305961 106.209879 
L 131.758924 107.19087 
L 134.211887 108.082679 
L 136.66485 107.547594 
L 139.117813 107.815137 
L 141.570775 108.082679 
L 144.023738 107.725956 
L 146.476701 106.923327 
L 148.929664 107.369232 
L 151.382627 107.636775 
L 153.83559 107.636775 
L 156.288553 108.082679 
L 158.741516 107.19087 
L 161.194479 106.209879 
L 163.647442 105.40725 
L 166.100404 104.069535 
L 168.553367 103.088544 
L 171.00633 103.712811 
L 173.459293 104.693802 
L 175.912256 107.458413 
L 178.365219 111.025652 
L 180.818182 114.236168 
L 183.271145 117.625046 
L 185.724108 120.032932 
L 188.177071 120.032932 
L 190.630033 120.032932 
L 193.082996 119.587027 
L 195.535959 119.141122 
L 197.988922 118.784398 
L 200.441885 118.873579 
L 202.894848 116.554874 
L 205.347811 115.127978 
L 207.800774 112.63091 
L 210.253737 109.687937 
L 212.706699 108.617765 
L 215.159662 109.598756 
L 217.612625 109.331213 
L 220.065588 110.133842 
L 222.518551 111.204014 
L 224.971514 112.274186 
L 227.424477 112.452548 
L 229.87744 114.503711 
L 232.330403 115.217159 
L 234.783366 116.287331 
L 237.236328 115.573883 
L 239.689291 115.30634 
L 242.142254 113.52272 
L 244.595217 113.433539 
L 247.04818 112.987634 
L 249.501143 112.898453 
L 251.954106 112.006643 
L 254.407069 114.592892 
L 256.860032 114.057806 
L 259.312995 116.19815 
L 261.765957 115.573883 
L 264.21892 116.822417 
L 266.671883 114.771254 
L 269.124846 115.573883 
L 271.577809 111.828281 
L 274.030772 112.363367 
L 276.483735 111.649919 
L 278.936698 111.560738 
L 281.389661 110.668928 
L 283.842624 112.095824 
L 286.295586 110.579747 
L 288.748549 110.490566 
L 291.201512 110.044661 
L 293.654475 110.223023 
L 296.107438 110.758109 
" clip-path="url(#pf93932658f)" style="fill: none; stroke: #2ca02c; stroke-linecap: square"/>
   </g>
   <g id="patch_3">
    <path d="M 54 126.94 
L 54 29.92 
" style="fill: none; stroke: #000000; stroke-width: 0.8; stroke-linejoin: miter; stroke-linecap: square"/>
   </g>
   <g id="patch_4">
    <path d="M 307.636364 126.94 
L 307.636364 29.92 
" style="fill: none; stroke: #000000; stroke-width: 0.8; stroke-linejoin: miter; stroke-linecap: square"/>
   </g>
   <g id="patch_5">
    <path d="M 54 126.94 
L 307.636364 126.94 
" style="fill: none; stroke: #000000; stroke-width: 0.8; stroke-linejoin: miter; stroke-linecap: square"/>
   </g>
   <g id="patch_6">
    <path d="M 54 29.92 
L 307.636364 29.92 
" style="fill: none; stroke: #000000; stroke-width: 0.8; stroke-linejoin: miter; stroke-linecap: square"/>
   </g>
   <g id="text_9">
    <!-- Continuous  -->
    <g transform="translate(156.955682 14.96175) scale(0.08 -0.08)">
     <defs>
      <path id="DejaVuSans-43" d="M 4122 4306 
L 4122 3641 
Q 3803 3938 3442 4084 
Q 3081 4231 2675 4231 
Q 1875 4231 1450 3742 
Q 1025 3253 1025 2328 
Q 1025 1406 1450 917 
Q 1875 428 2675 428 
Q 3081 428 3442 575 
Q 3803 722 4122 1019 
L 4122 359 
Q 3791 134 3420 21 
Q 3050 -91 2638 -91 
Q 1578 -91 968 557 
Q 359 1206 359 2328 
Q 359 3453 968 4101 
Q 1578 4750 2638 4750 
Q 3056 4750 3426 4639 
Q 3797 4528 4122 4306 
z
" transform="scale(0.015625)"/>
      <path id="DejaVuSans-6f" d="M 1959 3097 
Q 1497 3097 1228 2736 
Q 959 2375 959 1747 
Q 959 1119 1226 758 
Q 1494 397 1959 397 
Q 2419 397 2687 759 
Q 2956 1122 2956 1747 
Q 2956 2369 2687 2733 
Q 2419 3097 1959 3097 
z
M 1959 3584 
Q 2709 3584 3137 3096 
Q 3566 2609 3566 1747 
Q 3566 888 3137 398 
Q 2709 -91 1959 -91 
Q 1206 -91 779 398 
Q 353 888 353 1747 
Q 353 2609 779 3096 
Q 1206 3584 1959 3584 
z
" transform="scale(0.015625)"/>
      <path id="DejaVuSans-6e" d="M 3513 2113 
L 3513 0 
L 2938 0 
L 2938 2094 
Q 2938 2591 2744 2837 
Q 2550 3084 2163 3084 
Q 1697 3084 1428 2787 
Q 1159 2491 1159 1978 
L 1159 0 
L 581 0 
L 581 3500 
L 1159 3500 
L 1159 2956 
Q 1366 3272 1645 3428 
Q 1925 3584 2291 3584 
Q 2894 3584 3203 3211 
Q 3513 2838 3513 2113 
z
" transform="scale(0.015625)"/>
      <path id="DejaVuSans-74" d="M 1172 4494 
L 1172 3500 
L 2356 3500 
L 2356 3053 
L 1172 3053 
L 1172 1153 
Q 1172 725 1289 603 
Q 1406 481 1766 481 
L 2356 481 
L 2356 0 
L 1766 0 
Q 1100 0 847 248 
Q 594 497 594 1153 
L 594 3053 
L 172 3053 
L 172 3500 
L 594 3500 
L 594 4494 
L 1172 4494 
z
" transform="scale(0.015625)"/>
      <path id="DejaVuSans-69" d="M 603 3500 
L 1178 3500 
L 1178 0 
L 603 0 
L 603 3500 
z
M 603 4863 
L 1178 4863 
L 1178 4134 
L 603 4134 
L 603 4863 
z
" transform="scale(0.015625)"/>
      <path id="DejaVuSans-75" d="M 544 1381 
L 544 3500 
L 1119 3500 
L 1119 1403 
Q 1119 906 1312 657 
Q 1506 409 1894 409 
Q 2359 409 2629 706 
Q 2900 1003 2900 1516 
L 2900 3500 
L 3475 3500 
L 3475 0 
L 2900 0 
L 2900 538 
Q 2691 219 2414 64 
Q 2138 -91 1772 -91 
Q 1169 -91 856 284 
Q 544 659 544 1381 
z
M 1991 3584 
L 1991 3584 
z
" transform="scale(0.015625)"/>
      <path id="DejaVuSans-73" d="M 2834 3397 
L 2834 2853 
Q 2591 2978 2328 3040 
Q 2066 3103 1784 3103 
Q 1356 3103 1142 2972 
Q 928 2841 928 2578 
Q 928 2378 1081 2264 
Q 1234 2150 1697 2047 
L 1894 2003 
Q 2506 1872 2764 1633 
Q 3022 1394 3022 966 
Q 3022 478 2636 193 
Q 2250 -91 1575 -91 
Q 1294 -91 989 -36 
Q 684 19 347 128 
L 347 722 
Q 666 556 975 473 
Q 1284 391 1588 391 
Q 1994 391 2212 530 
Q 2431 669 2431 922 
Q 2431 1156 2273 1281 
Q 2116 1406 1581 1522 
L 1381 1569 
Q 847 1681 609 1914 
Q 372 2147 372 2553 
Q 372 3047 722 3315 
Q 1072 3584 1716 3584 
Q 2034 3584 2315 3537 
Q 2597 3491 2834 3397 
z
" transform="scale(0.015625)"/>
      <path id="DejaVuSans-20" transform="scale(0.015625)"/>
     </defs>
     <use xlink:href="#DejaVuSans-43"/>
     <use xlink:href="#DejaVuSans-6f" x="69.824219"/>
     <use xlink:href="#DejaVuSans-6e" x="131.005859"/>
     <use xlink:href="#DejaVuSans-74" x="194.384766"/>
     <use xlink:href="#DejaVuSans-69" x="233.59375"/>
     <use xlink:href="#DejaVuSans-6e" x="261.376953"/>
     <use xlink:href="#DejaVuSans-75" x="324.755859"/>
     <use xlink:href="#DejaVuSans-6f" x="388.134766"/>
     <use xlink:href="#DejaVuSans-75" x="449.316406"/>
     <use xlink:href="#DejaVuSans-73" x="512.695312"/>
     <use xlink:href="#DejaVuSans-20" x="564.794922"/>
    </g>
    <!--  Cart Pole -->
    <g transform="translate(161.531932 23.92) scale(0.08 -0.08)">
     <defs>
      <path id="DejaVuSans-61" d="M 2194 1759 
Q 1497 1759 1228 1600 
Q 959 1441 959 1056 
Q 959 750 1161 570 
Q 1363 391 1709 391 
Q 2188 391 2477 730 
Q 2766 1069 2766 1631 
L 2766 1759 
L 2194 1759 
z
M 3341 1997 
L 3341 0 
L 2766 0 
L 2766 531 
Q 2569 213 2275 61 
Q 1981 -91 1556 -91 
Q 1019 -91 701 211 
Q 384 513 384 1019 
Q 384 1609 779 1909 
Q 1175 2209 1959 2209 
L 2766 2209 
L 2766 2266 
Q 2766 2663 2505 2880 
Q 2244 3097 1772 3097 
Q 1472 3097 1187 3025 
Q 903 2953 641 2809 
L 641 3341 
Q 956 3463 1253 3523 
Q 1550 3584 1831 3584 
Q 2591 3584 2966 3190 
Q 3341 2797 3341 1997 
z
" transform="scale(0.015625)"/>
      <path id="DejaVuSans-72" d="M 2631 2963 
Q 2534 3019 2420 3045 
Q 2306 3072 2169 3072 
Q 1681 3072 1420 2755 
Q 1159 2438 1159 1844 
L 1159 0 
L 581 0 
L 581 3500 
L 1159 3500 
L 1159 2956 
Q 1341 3275 1631 3429 
Q 1922 3584 2338 3584 
Q 2397 3584 2469 3576 
Q 2541 3569 2628 3553 
L 2631 2963 
z
" transform="scale(0.015625)"/>
      <path id="DejaVuSans-50" d="M 1259 4147 
L 1259 2394 
L 2053 2394 
Q 2494 2394 2734 2622 
Q 2975 2850 2975 3272 
Q 2975 3691 2734 3919 
Q 2494 4147 2053 4147 
L 1259 4147 
z
M 628 4666 
L 2053 4666 
Q 2838 4666 3239 4311 
Q 3641 3956 3641 3272 
Q 3641 2581 3239 2228 
Q 2838 1875 2053 1875 
L 1259 1875 
L 1259 0 
L 628 0 
L 628 4666 
z
" transform="scale(0.015625)"/>
      <path id="DejaVuSans-6c" d="M 603 4863 
L 1178 4863 
L 1178 0 
L 603 0 
L 603 4863 
z
" transform="scale(0.015625)"/>
      <path id="DejaVuSans-65" d="M 3597 1894 
L 3597 1613 
L 953 1613 
Q 991 1019 1311 708 
Q 1631 397 2203 397 
Q 2534 397 2845 478 
Q 3156 559 3463 722 
L 3463 178 
Q 3153 47 2828 -22 
Q 2503 -91 2169 -91 
Q 1331 -91 842 396 
Q 353 884 353 1716 
Q 353 2575 817 3079 
Q 1281 3584 2069 3584 
Q 2775 3584 3186 3129 
Q 3597 2675 3597 1894 
z
M 3022 2063 
Q 3016 2534 2758 2815 
Q 2500 3097 2075 3097 
Q 1594 3097 1305 2825 
Q 1016 2553 972 2059 
L 3022 2063 
z
" transform="scale(0.015625)"/>
     </defs>
     <use xlink:href="#DejaVuSans-20"/>
     <use xlink:href="#DejaVuSans-43" x="31.787109"/>
     <use xlink:href="#DejaVuSans-61" x="101.611328"/>
     <use xlink:href="#DejaVuSans-72" x="162.890625"/>
     <use xlink:href="#DejaVuSans-74" x="204.003906"/>
     <use xlink:href="#DejaVuSans-20" x="243.212891"/>
     <use xlink:href="#DejaVuSans-50" x="275"/>
     <use xlink:href="#DejaVuSans-6f" x="331.677734"/>
     <use xlink:href="#DejaVuSans-6c" x="392.859375"/>
     <use xlink:href="#DejaVuSans-65" x="420.642578"/>
    </g>
   </g>
  </g>
  <g id="axes_2">
   <g id="patch_7">
    <path d="M 358.363636 126.94 
L 612 126.94 
L 612 29.92 
L 358.363636 29.92 
z
" style="fill: #ffffff"/>
   </g>
   <g id="matplotlib.axis_3">
    <g id="xtick_4">
     <g id="line2d_11">
      <g>
       <use xlink:href="#m3b8d96e0b5" x="367.034151" y="126.94" style="stroke: #000000; stroke-width: 0.8"/>
      </g>
     </g>
     <g id="text_10">
      <!-- 0 -->
      <g transform="translate(364.489151 140.01875) scale(0.08 -0.08)">
       <use xlink:href="#DejaVuSans-30"/>
      </g>
     </g>
    </g>
    <g id="xtick_5">
     <g id="line2d_12">
      <g>
       <use xlink:href="#m3b8d96e0b5" x="414.674339" y="126.94" style="stroke: #000000; stroke-width: 0.8"/>
      </g>
     </g>
     <g id="text_11">
      <!-- 500 -->
      <g transform="translate(407.039339 140.01875) scale(0.08 -0.08)">
       <use xlink:href="#DejaVuSans-35"/>
       <use xlink:href="#DejaVuSans-30" x="63.623047"/>
       <use xlink:href="#DejaVuSans-30" x="127.246094"/>
      </g>
     </g>
    </g>
    <g id="xtick_6">
     <g id="line2d_13">
      <g>
       <use xlink:href="#m3b8d96e0b5" x="462.314528" y="126.94" style="stroke: #000000; stroke-width: 0.8"/>
      </g>
     </g>
     <g id="text_12">
      <!-- 1K -->
      <g transform="translate(457.146403 140.01875) scale(0.08 -0.08)">
       <use xlink:href="#DejaVuSans-31"/>
       <use xlink:href="#DejaVuSans-4b" x="63.623047"/>
      </g>
     </g>
    </g>
    <g id="xtick_7">
     <g id="line2d_14">
      <g>
       <use xlink:href="#m3b8d96e0b5" x="509.954716" y="126.94" style="stroke: #000000; stroke-width: 0.8"/>
      </g>
     </g>
     <g id="text_13">
      <!-- 1K -->
      <g transform="translate(504.786591 140.01875) scale(0.08 -0.08)">
       <use xlink:href="#DejaVuSans-31"/>
       <use xlink:href="#DejaVuSans-4b" x="63.623047"/>
      </g>
     </g>
    </g>
    <g id="xtick_8">
     <g id="line2d_15">
      <g>
       <use xlink:href="#m3b8d96e0b5" x="557.594905" y="126.94" style="stroke: #000000; stroke-width: 0.8"/>
      </g>
     </g>
     <g id="text_14">
      <!-- 2K -->
      <g transform="translate(552.42678 140.01875) scale(0.08 -0.08)">
       <use xlink:href="#DejaVuSans-32"/>
       <use xlink:href="#DejaVuSans-4b" x="63.623047"/>
      </g>
     </g>
    </g>
    <g id="xtick_9">
     <g id="line2d_16">
      <g>
       <use xlink:href="#m3b8d96e0b5" x="605.235093" y="126.94" style="stroke: #000000; stroke-width: 0.8"/>
      </g>
     </g>
     <g id="text_15">
      <!-- 2K -->
      <g transform="translate(600.066968 140.01875) scale(0.08 -0.08)">
       <use xlink:href="#DejaVuSans-32"/>
       <use xlink:href="#DejaVuSans-4b" x="63.623047"/>
      </g>
     </g>
    </g>
   </g>
   <g id="matplotlib.axis_4">
    <g id="ytick_6">
     <g id="line2d_17">
      <g>
       <use xlink:href="#m749572db89" x="358.363636" y="122.651183" style="stroke: #000000; stroke-width: 0.8"/>
      </g>
     </g>
     <g id="text_16">
      <!-- -321 -->
      <g transform="translate(333.207386 125.690558) scale(0.08 -0.08)">
       <defs>
        <path id="DejaVuSans-2d" d="M 313 2009 
L 1997 2009 
L 1997 1497 
L 313 1497 
L 313 2009 
z
" transform="scale(0.015625)"/>
        <path id="DejaVuSans-33" d="M 2597 2516 
Q 3050 2419 3304 2112 
Q 3559 1806 3559 1356 
Q 3559 666 3084 287 
Q 2609 -91 1734 -91 
Q 1441 -91 1130 -33 
Q 819 25 488 141 
L 488 750 
Q 750 597 1062 519 
Q 1375 441 1716 441 
Q 2309 441 2620 675 
Q 2931 909 2931 1356 
Q 2931 1769 2642 2001 
Q 2353 2234 1838 2234 
L 1294 2234 
L 1294 2753 
L 1863 2753 
Q 2328 2753 2575 2939 
Q 2822 3125 2822 3475 
Q 2822 3834 2567 4026 
Q 2313 4219 1838 4219 
Q 1578 4219 1281 4162 
Q 984 4106 628 3988 
L 628 4550 
Q 988 4650 1302 4700 
Q 1616 4750 1894 4750 
Q 2613 4750 3031 4423 
Q 3450 4097 3450 3541 
Q 3450 3153 3228 2886 
Q 3006 2619 2597 2516 
z
" transform="scale(0.015625)"/>
       </defs>
       <use xlink:href="#DejaVuSans-2d"/>
       <use xlink:href="#DejaVuSans-33" x="36.083984"/>
       <use xlink:href="#DejaVuSans-32" x="99.707031"/>
       <use xlink:href="#DejaVuSans-31" x="163.330078"/>
      </g>
     </g>
    </g>
    <g id="ytick_7">
     <g id="line2d_18">
      <g>
       <use xlink:href="#m749572db89" x="358.363636" y="114.923584" style="stroke: #000000; stroke-width: 0.8"/>
      </g>
     </g>
     <g id="text_17">
      <!-- -271 -->
      <g transform="translate(333.207386 117.962959) scale(0.08 -0.08)">
       <defs>
        <path id="DejaVuSans-37" d="M 525 4666 
L 3525 4666 
L 3525 4397 
L 1831 0 
L 1172 0 
L 2766 4134 
L 525 4134 
L 525 4666 
z
" transform="scale(0.015625)"/>
       </defs>
       <use xlink:href="#DejaVuSans-2d"/>
       <use xlink:href="#DejaVuSans-32" x="36.083984"/>
       <use xlink:href="#DejaVuSans-37" x="99.707031"/>
       <use xlink:href="#DejaVuSans-31" x="163.330078"/>
      </g>
     </g>
    </g>
    <g id="ytick_8">
     <g id="line2d_19">
      <g>
       <use xlink:href="#m749572db89" x="358.363636" y="107.195986" style="stroke: #000000; stroke-width: 0.8"/>
      </g>
     </g>
     <g id="text_18">
      <!-- -221 -->
      <g transform="translate(333.207386 110.235361) scale(0.08 -0.08)">
       <use xlink:href="#DejaVuSans-2d"/>
       <use xlink:href="#DejaVuSans-32" x="36.083984"/>
       <use xlink:href="#DejaVuSans-32" x="99.707031"/>
       <use xlink:href="#DejaVuSans-31" x="163.330078"/>
      </g>
     </g>
    </g>
    <g id="ytick_9">
     <g id="line2d_20">
      <g>
       <use xlink:href="#m749572db89" x="358.363636" y="99.468387" style="stroke: #000000; stroke-width: 0.8"/>
      </g>
     </g>
     <g id="text_19">
      <!-- -171 -->
      <g transform="translate(333.207386 102.507762) scale(0.08 -0.08)">
       <use xlink:href="#DejaVuSans-2d"/>
       <use xlink:href="#DejaVuSans-31" x="36.083984"/>
       <use xlink:href="#DejaVuSans-37" x="99.707031"/>
       <use xlink:href="#DejaVuSans-31" x="163.330078"/>
      </g>
     </g>
    </g>
    <g id="ytick_10">
     <g id="line2d_21">
      <g>
       <use xlink:href="#m749572db89" x="358.363636" y="91.740789" style="stroke: #000000; stroke-width: 0.8"/>
      </g>
     </g>
     <g id="text_20">
      <!-- -121 -->
      <g transform="translate(333.207386 94.780164) scale(0.08 -0.08)">
       <use xlink:href="#DejaVuSans-2d"/>
       <use xlink:href="#DejaVuSans-31" x="36.083984"/>
       <use xlink:href="#DejaVuSans-32" x="99.707031"/>
       <use xlink:href="#DejaVuSans-31" x="163.330078"/>
      </g>
     </g>
    </g>
    <g id="ytick_11">
     <g id="line2d_22">
      <g>
       <use xlink:href="#m749572db89" x="358.363636" y="84.01319" style="stroke: #000000; stroke-width: 0.8"/>
      </g>
     </g>
     <g id="text_21">
      <!-- -71 -->
      <g transform="translate(338.297386 87.052565) scale(0.08 -0.08)">
       <use xlink:href="#DejaVuSans-2d"/>
       <use xlink:href="#DejaVuSans-37" x="36.083984"/>
       <use xlink:href="#DejaVuSans-31" x="99.707031"/>
      </g>
     </g>
    </g>
    <g id="ytick_12">
     <g id="line2d_23">
      <g>
       <use xlink:href="#m749572db89" x="358.363636" y="76.285591" style="stroke: #000000; stroke-width: 0.8"/>
      </g>
     </g>
     <g id="text_22">
      <!-- -21 -->
      <g transform="translate(338.297386 79.324966) scale(0.08 -0.08)">
       <use xlink:href="#DejaVuSans-2d"/>
       <use xlink:href="#DejaVuSans-32" x="36.083984"/>
       <use xlink:href="#DejaVuSans-31" x="99.707031"/>
      </g>
     </g>
    </g>
    <g id="ytick_13">
     <g id="line2d_24">
      <g>
       <use xlink:href="#m749572db89" x="358.363636" y="68.557993" style="stroke: #000000; stroke-width: 0.8"/>
      </g>
     </g>
     <g id="text_23">
      <!-- 29 -->
      <g transform="translate(341.183636 71.597368) scale(0.08 -0.08)">
       <defs>
        <path id="DejaVuSans-39" d="M 703 97 
L 703 672 
Q 941 559 1184 500 
Q 1428 441 1663 441 
Q 2288 441 2617 861 
Q 2947 1281 2994 2138 
Q 2813 1869 2534 1725 
Q 2256 1581 1919 1581 
Q 1219 1581 811 2004 
Q 403 2428 403 3163 
Q 403 3881 828 4315 
Q 1253 4750 1959 4750 
Q 2769 4750 3195 4129 
Q 3622 3509 3622 2328 
Q 3622 1225 3098 567 
Q 2575 -91 1691 -91 
Q 1453 -91 1209 -44 
Q 966 3 703 97 
z
M 1959 2075 
Q 2384 2075 2632 2365 
Q 2881 2656 2881 3163 
Q 2881 3666 2632 3958 
Q 2384 4250 1959 4250 
Q 1534 4250 1286 3958 
Q 1038 3666 1038 3163 
Q 1038 2656 1286 2365 
Q 1534 2075 1959 2075 
z
" transform="scale(0.015625)"/>
       </defs>
       <use xlink:href="#DejaVuSans-32"/>
       <use xlink:href="#DejaVuSans-39" x="63.623047"/>
      </g>
     </g>
    </g>
    <g id="ytick_14">
     <g id="line2d_25">
      <g>
       <use xlink:href="#m749572db89" x="358.363636" y="60.830394" style="stroke: #000000; stroke-width: 0.8"/>
      </g>
     </g>
     <g id="text_24">
      <!-- 79 -->
      <g transform="translate(341.183636 63.869769) scale(0.08 -0.08)">
       <use xlink:href="#DejaVuSans-37"/>
       <use xlink:href="#DejaVuSans-39" x="63.623047"/>
      </g>
     </g>
    </g>
    <g id="ytick_15">
     <g id="line2d_26">
      <g>
       <use xlink:href="#m749572db89" x="358.363636" y="53.102796" style="stroke: #000000; stroke-width: 0.8"/>
      </g>
     </g>
     <g id="text_25">
      <!-- 129 -->
      <g transform="translate(336.093636 56.142171) scale(0.08 -0.08)">
       <use xlink:href="#DejaVuSans-31"/>
       <use xlink:href="#DejaVuSans-32" x="63.623047"/>
       <use xlink:href="#DejaVuSans-39" x="127.246094"/>
      </g>
     </g>
    </g>
    <g id="ytick_16">
     <g id="line2d_27">
      <g>
       <use xlink:href="#m749572db89" x="358.363636" y="45.375197" style="stroke: #000000; stroke-width: 0.8"/>
      </g>
     </g>
     <g id="text_26">
      <!-- 179 -->
      <g transform="translate(336.093636 48.414572) scale(0.08 -0.08)">
       <use xlink:href="#DejaVuSans-31"/>
       <use xlink:href="#DejaVuSans-37" x="63.623047"/>
       <use xlink:href="#DejaVuSans-39" x="127.246094"/>
      </g>
     </g>
    </g>
    <g id="ytick_17">
     <g id="line2d_28">
      <g>
       <use xlink:href="#m749572db89" x="358.363636" y="37.647599" style="stroke: #000000; stroke-width: 0.8"/>
      </g>
     </g>
     <g id="text_27">
      <!-- 229 -->
      <g transform="translate(336.093636 40.686974) scale(0.08 -0.08)">
       <use xlink:href="#DejaVuSans-32"/>
       <use xlink:href="#DejaVuSans-32" x="63.623047"/>
       <use xlink:href="#DejaVuSans-39" x="127.246094"/>
      </g>
     </g>
    </g>
    <g id="ytick_18">
     <g id="line2d_29">
      <g>
       <use xlink:href="#m749572db89" x="358.363636" y="29.92" style="stroke: #000000; stroke-width: 0.8"/>
      </g>
     </g>
     <g id="text_28">
      <!-- 279 -->
      <g transform="translate(336.093636 32.959375) scale(0.08 -0.08)">
       <use xlink:href="#DejaVuSans-32"/>
       <use xlink:href="#DejaVuSans-37" x="63.623047"/>
       <use xlink:href="#DejaVuSans-39" x="127.246094"/>
      </g>
     </g>
    </g>
   </g>
   <g id="line2d_30">
    <path d="M 369.892562 59.130323 
L 370.845366 50.877247 
L 371.79817 46.302509 
L 372.750973 46.580703 
L 373.703777 43.798767 
L 374.656581 44.04605 
L 375.609385 42.933276 
L 376.562188 41.202294 
L 377.514992 40.800459 
L 378.467796 43.829677 
L 379.4206 45.406108 
L 380.373403 45.746122 
L 381.326207 46.920717 
L 382.279011 44.540616 
L 383.231815 43.551484 
L 384.184619 41.542308 
L 385.137422 41.789591 
L 386.090226 41.109563 
L 387.04303 41.913233 
L 387.995834 41.511398 
L 388.948637 41.511398 
L 389.901441 40.9241 
L 390.854245 41.944143 
L 391.807049 42.407799 
L 392.759852 42.43871 
L 393.712656 40.9241 
L 394.66546 40.274982 
L 395.618264 40.027699 
L 396.571068 39.285849 
L 397.523871 40.336803 
L 398.476675 41.851412 
L 399.429479 42.933276 
L 400.382283 43.675125 
L 401.335086 44.726079 
L 402.28789 43.829677 
L 403.240694 44.81881 
L 404.193498 44.973362 
L 405.146301 43.767857 
L 406.099105 43.736946 
L 407.051909 43.582394 
L 408.004713 41.511398 
L 408.957517 38.698552 
L 409.91032 37.863971 
L 410.863124 36.534824 
L 411.815928 36.22572 
L 412.768732 38.729462 
L 413.721535 55.390165 
L 414.674339 66.7961 
L 415.627143 72.730896 
L 416.579947 77.181993 
L 417.53275 76.96562 
L 418.485554 62.623197 
L 419.438358 51.09362 
L 420.391162 45.467928 
L 421.343966 43.180559 
L 422.296769 42.809634 
L 423.249573 43.458753 
L 424.202377 45.097004 
L 425.155181 45.344287 
L 426.107984 42.778724 
L 427.060788 43.24238 
L 428.013592 44.01514 
L 428.966396 43.891498 
L 429.9192 43.984229 
L 430.872003 45.035183 
L 431.824807 44.138781 
L 432.777611 41.882323 
L 433.730415 41.975054 
L 434.683218 43.891498 
L 435.636022 45.066093 
L 436.588826 43.458753 
L 437.54163 45.777032 
L 438.494433 45.004272 
L 439.447237 42.376889 
L 440.400041 41.975054 
L 442.305649 43.829677 
L 443.258452 43.366022 
L 444.211256 45.251556 
L 445.16406 43.520573 
L 446.116864 44.386065 
L 447.069667 41.542308 
L 448.022471 40.645907 
L 448.975275 41.016832 
L 449.928079 41.264115 
L 450.880882 40.584086 
L 451.833686 40.182251 
L 452.78649 40.831369 
L 453.739294 38.822194 
L 454.692098 40.213161 
L 455.644901 39.34767 
L 456.597705 39.996789 
L 457.550509 39.038566 
L 458.503313 40.305892 
L 459.456116 40.429534 
L 460.40892 42.809634 
L 461.361724 50.815427 
L 462.314528 51.990022 
L 463.267331 52.391857 
L 464.220135 53.226437 
L 465.172939 51.402724 
L 466.125743 45.282466 
L 467.078547 46.827986 
L 468.03135 46.827986 
L 468.984154 44.231513 
L 469.936958 46.457061 
L 470.889762 45.406108 
L 471.842565 45.220645 
L 472.795369 45.529749 
L 473.748173 47.075269 
L 474.700977 45.066093 
L 475.65378 45.158824 
L 476.606584 45.467928 
L 477.559388 43.613305 
L 478.512192 43.118738 
L 479.464996 44.386065 
L 480.417799 42.871455 
L 481.370603 41.944143 
L 482.323407 42.160516 
L 483.276211 42.902366 
L 484.229014 42.902366 
L 485.181818 43.21147 
L 486.134622 41.789591 
L 487.087426 42.716903 
L 488.040229 42.624172 
L 488.993033 41.171384 
L 489.945837 40.955011 
L 490.898641 43.922409 
L 491.851445 43.149649 
L 492.804248 41.727771 
L 493.757052 43.984229 
L 494.709856 43.767857 
L 495.66266 41.140473 
L 496.615463 40.985921 
L 497.568267 42.593262 
L 498.521071 39.100387 
L 499.473875 41.016832 
L 500.426679 41.202294 
L 501.379482 41.975054 
L 502.332286 39.687685 
L 503.28509 42.067785 
L 504.237894 40.955011 
L 505.190697 42.253247 
L 506.143501 41.789591 
L 507.096305 42.747814 
L 508.049109 42.871455 
L 509.001912 57.028416 
L 509.954716 64.38509 
L 510.90752 69.701677 
L 511.860324 70.845362 
L 512.813128 71.46357 
L 513.765931 59.192143 
L 514.718735 49.579011 
L 515.671539 43.026007 
L 516.624343 43.675125 
L 517.577146 43.335111 
L 518.52995 41.511398 
L 519.482754 42.562351 
L 520.435558 44.447885 
L 521.388361 43.118738 
L 522.341165 42.995097 
L 523.293969 43.24238 
L 524.246773 43.922409 
L 525.199577 43.891498 
L 526.15238 44.416975 
L 527.105184 43.149649 
L 528.057988 43.829677 
L 529.010792 44.81881 
L 529.963595 45.375197 
L 530.916399 45.406108 
L 531.869203 46.36433 
L 532.822007 43.27329 
L 533.77481 42.778724 
L 534.727614 41.789591 
L 535.680418 41.542308 
L 536.633222 40.985921 
L 537.586026 41.418667 
L 538.538829 39.934968 
L 539.491633 40.182251 
L 540.444437 38.51309 
L 541.397241 38.605821 
L 542.350044 40.584086 
L 543.302848 41.140473 
L 544.255652 41.325935 
L 545.208456 43.087828 
L 546.161259 44.416975 
L 548.066867 44.169692 
L 549.019671 44.355154 
L 549.972475 44.107871 
L 550.925278 41.944143 
L 552.830886 40.831369 
L 553.78369 40.584086 
L 555.689297 39.162208 
L 556.642101 49.919025 
L 558.547708 88.186093 
L 559.500512 97.428301 
L 560.453316 100.982996 
L 561.40612 90.473462 
L 563.311727 53.628272 
L 564.264531 45.59157 
L 565.217335 45.282466 
L 566.170139 46.302509 
L 567.122942 46.055226 
L 568.075746 43.427842 
L 569.02855 43.427842 
L 569.981354 41.635039 
L 570.934158 38.729462 
L 571.886961 37.894882 
L 572.839765 39.34767 
L 573.792569 37.493047 
L 574.745373 37.153032 
L 576.65098 41.69686 
L 577.603784 40.274982 
L 578.556588 40.831369 
L 579.509391 41.604129 
L 580.462195 41.480487 
L 581.414999 39.254939 
L 582.367803 40.429534 
L 583.320607 39.656774 
L 584.27341 40.08952 
L 585.226214 38.605821 
L 586.179018 39.007656 
L 587.131822 39.193118 
L 588.084625 39.193118 
L 589.990233 39.687685 
L 590.943037 41.140473 
L 591.89584 40.769548 
L 592.848644 42.222337 
L 593.801448 42.253247 
L 594.754252 42.933276 
L 595.707056 44.324244 
L 596.659859 44.076961 
L 597.612663 45.035183 
L 598.565467 44.602437 
L 599.518271 43.798767 
L 600.471074 41.480487 
L 600.471074 41.480487 
" clip-path="url(#pf104013a19)" style="fill: none; stroke: #d62728; stroke-linecap: square"/>
   </g>
   <g id="line2d_31">
    <path d="M 369.892562 102.466695 
L 370.845366 100.024774 
L 372.750973 101.570294 
L 373.703777 99.746581 
L 374.656581 99.066552 
L 375.609385 99.159283 
L 376.562188 100.272057 
L 377.514992 98.417434 
L 378.467796 100.024774 
L 379.4206 102.188502 
L 380.373403 102.219412 
L 381.326207 98.602896 
L 382.279011 97.984688 
L 383.231815 99.530208 
L 384.184619 103.332186 
L 385.137422 102.559427 
L 387.04303 107.968746 
L 387.995834 106.670509 
L 388.948637 100.395699 
L 389.901441 100.612072 
L 390.854245 98.231971 
L 391.807049 96.5319 
L 394.66546 108.525133 
L 395.618264 114.707211 
L 396.571068 116.747297 
L 397.523871 120.425634 
L 398.476675 122.156616 
L 399.429479 122.094796 
L 400.382283 119.28195 
L 401.335086 122.620272 
L 403.240694 117.70552 
L 404.193498 117.612789 
L 405.146301 119.714695 
L 406.099105 116.036358 
L 408.004713 112.419842 
L 408.957517 112.574394 
L 409.91032 108.926968 
L 410.863124 108.617864 
L 411.815928 107.165075 
L 412.768732 108.33967 
L 413.721535 104.970437 
L 414.674339 105.063168 
L 415.627143 102.126681 
L 416.579947 100.519341 
L 417.53275 100.364789 
L 418.485554 102.899441 
L 419.438358 102.250323 
L 420.391162 103.332186 
L 421.343966 103.394007 
L 422.296769 101.353921 
L 423.249573 100.024774 
L 425.155181 96.779183 
L 426.107984 97.242839 
L 427.060788 97.36648 
L 428.013592 96.717362 
L 428.966396 99.808401 
L 429.9192 100.921176 
L 430.872003 102.497606 
L 431.824807 101.910308 
L 432.777611 101.879398 
L 433.730415 100.364789 
L 434.683218 101.910308 
L 435.636022 99.561118 
L 436.588826 99.282925 
L 438.494433 95.944602 
L 439.447237 96.037333 
L 441.352845 98.262882 
L 442.305649 98.448344 
L 443.258452 98.231971 
L 444.211256 97.891957 
L 445.16406 98.170151 
L 446.116864 100.766624 
L 447.069667 101.601204 
L 448.022471 103.424918 
L 449.928079 102.188502 
L 450.880882 100.45752 
L 452.78649 101.323011 
L 453.739294 100.426609 
L 454.692098 99.344746 
L 455.644901 97.397391 
L 456.597705 96.160975 
L 457.550509 94.120889 
L 459.456116 93.842695 
L 460.40892 95.573677 
L 462.314528 97.737405 
L 463.267331 98.912 
L 464.220135 101.075728 
L 465.172939 101.137548 
L 466.125743 99.962953 
L 467.078547 100.210237 
L 468.03135 99.159283 
L 468.984154 99.004731 
L 469.936958 99.530208 
L 470.889762 99.282925 
L 471.842565 100.673892 
L 472.795369 100.241147 
L 474.700977 96.59372 
L 475.65378 98.262882 
L 476.606584 96.624631 
L 477.559388 97.397391 
L 478.512192 96.408258 
L 479.464996 96.624631 
L 480.417799 95.666409 
L 481.370603 96.500989 
L 482.323407 99.313835 
L 483.276211 99.993864 
L 484.229014 99.808401 
L 485.181818 100.148416 
L 486.134622 98.912 
L 487.087426 96.500989 
L 488.040229 98.231971 
L 488.993033 98.10833 
L 489.945837 97.675584 
L 490.898641 99.653849 
L 491.851445 98.726538 
L 492.804248 96.068244 
L 493.757052 96.439168 
L 494.709856 96.5319 
L 495.66266 95.01729 
L 496.615463 95.604588 
L 497.568267 98.077419 
L 498.521071 97.304659 
L 499.473875 98.664717 
L 500.426679 99.221104 
L 501.379482 99.592029 
L 502.332286 96.995556 
L 503.28509 97.459211 
L 504.237894 95.419125 
L 505.190697 96.59372 
L 506.143501 96.995556 
L 507.096305 98.324703 
L 508.049109 100.210237 
L 509.001912 100.024774 
L 509.954716 100.148416 
L 510.90752 99.344746 
L 511.860324 100.024774 
L 512.813128 98.757448 
L 513.765931 101.23028 
L 514.718735 98.510165 
L 515.671539 97.830136 
L 516.624343 98.077419 
L 517.577146 98.664717 
L 518.52995 98.077419 
L 519.482754 98.788358 
L 520.435558 99.962953 
L 521.388361 98.355613 
L 522.341165 97.397391 
L 523.293969 95.388215 
L 524.246773 93.842695 
L 525.199577 93.131756 
L 526.15238 94.028158 
L 527.105184 95.202753 
L 528.057988 95.171842 
L 529.010792 97.088287 
L 529.963595 96.624631 
L 530.916399 97.211928 
L 531.869203 98.293792 
L 532.822007 98.788358 
L 533.77481 97.304659 
L 534.727614 99.344746 
L 535.680418 98.077419 
L 536.633222 97.397391 
L 537.586026 97.706495 
L 538.538829 98.479254 
L 539.491633 96.408258 
L 540.444437 96.717362 
L 541.397241 94.399082 
L 542.350044 94.120889 
L 543.302848 95.511857 
L 544.255652 99.777491 
L 545.208456 99.561118 
L 546.161259 101.632115 
L 547.114063 101.137548 
L 548.066867 99.252014 
L 549.019671 95.202753 
L 549.972475 94.800918 
L 550.925278 93.688143 
L 551.878082 93.811785 
L 552.830886 96.964645 
L 553.78369 97.211928 
L 554.736493 98.231971 
L 555.689297 98.324703 
L 556.642101 98.664717 
L 557.594905 96.686452 
L 558.547708 97.119197 
L 559.500512 97.088287 
L 560.453316 95.975513 
L 561.40612 96.56281 
L 562.358924 95.573677 
L 563.311727 95.542767 
L 564.264531 94.491814 
L 566.170139 93.688143 
L 567.122942 94.18271 
L 568.075746 93.44086 
L 569.981354 96.655541 
L 570.934158 97.273749 
L 571.886961 96.315527 
L 572.839765 96.439168 
L 573.792569 95.511857 
L 574.745373 97.181018 
L 575.698176 95.820961 
L 576.65098 95.851871 
L 578.556588 97.953778 
L 579.509391 96.099154 
L 580.462195 97.119197 
L 581.414999 97.768315 
L 582.367803 97.088287 
L 583.320607 95.233663 
L 584.27341 97.026466 
L 585.226214 95.975513 
L 586.179018 96.130065 
L 587.131822 94.95547 
L 588.084625 96.902824 
L 589.037429 95.851871 
L 589.990233 96.191885 
L 590.943037 94.924559 
L 591.89584 97.242839 
L 592.848644 96.841004 
L 593.801448 95.851871 
L 595.707056 97.397391 
L 598.565467 93.502681 
L 599.518271 94.18271 
L 600.471074 95.264573 
L 600.471074 95.264573 
" clip-path="url(#pf104013a19)" style="fill: none; stroke: #2ca02c; stroke-linecap: square"/>
   </g>
   <g id="patch_8">
    <path d="M 358.363636 126.94 
L 358.363636 29.92 
" style="fill: none; stroke: #000000; stroke-width: 0.8; stroke-linejoin: miter; stroke-linecap: square"/>
   </g>
   <g id="patch_9">
    <path d="M 612 126.94 
L 612 29.92 
" style="fill: none; stroke: #000000; stroke-width: 0.8; stroke-linejoin: miter; stroke-linecap: square"/>
   </g>
   <g id="patch_10">
    <path d="M 358.363636 126.94 
L 612 126.94 
" style="fill: none; stroke: #000000; stroke-width: 0.8; stroke-linejoin: miter; stroke-linecap: square"/>
   </g>
   <g id="patch_11">
    <path d="M 358.363636 29.92 
L 612 29.92 
" style="fill: none; stroke: #000000; stroke-width: 0.8; stroke-linejoin: miter; stroke-linecap: square"/>
   </g>
   <g id="text_29">
    <!-- Continuous  -->
    <g transform="translate(461.319318 14.96175) scale(0.08 -0.08)">
     <use xlink:href="#DejaVuSans-43"/>
     <use xlink:href="#DejaVuSans-6f" x="69.824219"/>
     <use xlink:href="#DejaVuSans-6e" x="131.005859"/>
     <use xlink:href="#DejaVuSans-74" x="194.384766"/>
     <use xlink:href="#DejaVuSans-69" x="233.59375"/>
     <use xlink:href="#DejaVuSans-6e" x="261.376953"/>
     <use xlink:href="#DejaVuSans-75" x="324.755859"/>
     <use xlink:href="#DejaVuSans-6f" x="388.134766"/>
     <use xlink:href="#DejaVuSans-75" x="449.316406"/>
     <use xlink:href="#DejaVuSans-73" x="512.695312"/>
     <use xlink:href="#DejaVuSans-20" x="564.794922"/>
    </g>
    <!--  Lunar Lander -->
    <g transform="translate(457.454943 23.92) scale(0.08 -0.08)">
     <defs>
      <path id="DejaVuSans-4c" d="M 628 4666 
L 1259 4666 
L 1259 531 
L 3531 531 
L 3531 0 
L 628 0 
L 628 4666 
z
" transform="scale(0.015625)"/>
      <path id="DejaVuSans-64" d="M 2906 2969 
L 2906 4863 
L 3481 4863 
L 3481 0 
L 2906 0 
L 2906 525 
Q 2725 213 2448 61 
Q 2172 -91 1784 -91 
Q 1150 -91 751 415 
Q 353 922 353 1747 
Q 353 2572 751 3078 
Q 1150 3584 1784 3584 
Q 2172 3584 2448 3432 
Q 2725 3281 2906 2969 
z
M 947 1747 
Q 947 1113 1208 752 
Q 1469 391 1925 391 
Q 2381 391 2643 752 
Q 2906 1113 2906 1747 
Q 2906 2381 2643 2742 
Q 2381 3103 1925 3103 
Q 1469 3103 1208 2742 
Q 947 2381 947 1747 
z
" transform="scale(0.015625)"/>
     </defs>
     <use xlink:href="#DejaVuSans-20"/>
     <use xlink:href="#DejaVuSans-4c" x="31.787109"/>
     <use xlink:href="#DejaVuSans-75" x="85.75"/>
     <use xlink:href="#DejaVuSans-6e" x="149.128906"/>
     <use xlink:href="#DejaVuSans-61" x="212.507812"/>
     <use xlink:href="#DejaVuSans-72" x="273.787109"/>
     <use xlink:href="#DejaVuSans-20" x="314.900391"/>
     <use xlink:href="#DejaVuSans-4c" x="346.6875"/>
     <use xlink:href="#DejaVuSans-61" x="402.400391"/>
     <use xlink:href="#DejaVuSans-6e" x="463.679688"/>
     <use xlink:href="#DejaVuSans-64" x="527.058594"/>
     <use xlink:href="#DejaVuSans-65" x="590.535156"/>
     <use xlink:href="#DejaVuSans-72" x="652.058594"/>
    </g>
   </g>
  </g>
  <g id="text_30">
   <!-- Episodes -->
   <g transform="translate(301.757812 150.88) scale(0.1 -0.1)">
    <defs>
     <path id="DejaVuSans-45" d="M 628 4666 
L 3578 4666 
L 3578 4134 
L 1259 4134 
L 1259 2753 
L 3481 2753 
L 3481 2222 
L 1259 2222 
L 1259 531 
L 3634 531 
L 3634 0 
L 628 0 
L 628 4666 
z
" transform="scale(0.015625)"/>
     <path id="DejaVuSans-70" d="M 1159 525 
L 1159 -1331 
L 581 -1331 
L 581 3500 
L 1159 3500 
L 1159 2969 
Q 1341 3281 1617 3432 
Q 1894 3584 2278 3584 
Q 2916 3584 3314 3078 
Q 3713 2572 3713 1747 
Q 3713 922 3314 415 
Q 2916 -91 2278 -91 
Q 1894 -91 1617 61 
Q 1341 213 1159 525 
z
M 3116 1747 
Q 3116 2381 2855 2742 
Q 2594 3103 2138 3103 
Q 1681 3103 1420 2742 
Q 1159 2381 1159 1747 
Q 1159 1113 1420 752 
Q 1681 391 2138 391 
Q 2594 391 2855 752 
Q 3116 1113 3116 1747 
z
" transform="scale(0.015625)"/>
    </defs>
    <use xlink:href="#DejaVuSans-45"/>
    <use xlink:href="#DejaVuSans-70" x="63.183594"/>
    <use xlink:href="#DejaVuSans-69" x="126.660156"/>
    <use xlink:href="#DejaVuSans-73" x="154.443359"/>
    <use xlink:href="#DejaVuSans-6f" x="206.542969"/>
    <use xlink:href="#DejaVuSans-64" x="267.724609"/>
    <use xlink:href="#DejaVuSans-65" x="331.201172"/>
    <use xlink:href="#DejaVuSans-73" x="392.724609"/>
   </g>
  </g>
  <g id="text_31">
   <!--        Cumulative Reward -->
   <g transform="translate(14.798438 140.191094) rotate(-90) scale(0.1 -0.1)">
    <defs>
     <path id="DejaVuSans-6d" d="M 3328 2828 
Q 3544 3216 3844 3400 
Q 4144 3584 4550 3584 
Q 5097 3584 5394 3201 
Q 5691 2819 5691 2113 
L 5691 0 
L 5113 0 
L 5113 2094 
Q 5113 2597 4934 2840 
Q 4756 3084 4391 3084 
Q 3944 3084 3684 2787 
Q 3425 2491 3425 1978 
L 3425 0 
L 2847 0 
L 2847 2094 
Q 2847 2600 2669 2842 
Q 2491 3084 2119 3084 
Q 1678 3084 1418 2786 
Q 1159 2488 1159 1978 
L 1159 0 
L 581 0 
L 581 3500 
L 1159 3500 
L 1159 2956 
Q 1356 3278 1631 3431 
Q 1906 3584 2284 3584 
Q 2666 3584 2933 3390 
Q 3200 3197 3328 2828 
z
" transform="scale(0.015625)"/>
     <path id="DejaVuSans-76" d="M 191 3500 
L 800 3500 
L 1894 563 
L 2988 3500 
L 3597 3500 
L 2284 0 
L 1503 0 
L 191 3500 
z
" transform="scale(0.015625)"/>
     <path id="DejaVuSans-52" d="M 2841 2188 
Q 3044 2119 3236 1894 
Q 3428 1669 3622 1275 
L 4263 0 
L 3584 0 
L 2988 1197 
Q 2756 1666 2539 1819 
Q 2322 1972 1947 1972 
L 1259 1972 
L 1259 0 
L 628 0 
L 628 4666 
L 2053 4666 
Q 2853 4666 3247 4331 
Q 3641 3997 3641 3322 
Q 3641 2881 3436 2590 
Q 3231 2300 2841 2188 
z
M 1259 4147 
L 1259 2491 
L 2053 2491 
Q 2509 2491 2742 2702 
Q 2975 2913 2975 3322 
Q 2975 3731 2742 3939 
Q 2509 4147 2053 4147 
L 1259 4147 
z
" transform="scale(0.015625)"/>
     <path id="DejaVuSans-77" d="M 269 3500 
L 844 3500 
L 1563 769 
L 2278 3500 
L 2956 3500 
L 3675 769 
L 4391 3500 
L 4966 3500 
L 4050 0 
L 3372 0 
L 2619 2869 
L 1863 0 
L 1184 0 
L 269 3500 
z
" transform="scale(0.015625)"/>
    </defs>
    <use xlink:href="#DejaVuSans-20"/>
    <use xlink:href="#DejaVuSans-20" x="31.787109"/>
    <use xlink:href="#DejaVuSans-20" x="63.574219"/>
    <use xlink:href="#DejaVuSans-20" x="95.361328"/>
    <use xlink:href="#DejaVuSans-20" x="127.148438"/>
    <use xlink:href="#DejaVuSans-20" x="158.935547"/>
    <use xlink:href="#DejaVuSans-20" x="190.722656"/>
    <use xlink:href="#DejaVuSans-43" x="222.509766"/>
    <use xlink:href="#DejaVuSans-75" x="292.333984"/>
    <use xlink:href="#DejaVuSans-6d" x="355.712891"/>
    <use xlink:href="#DejaVuSans-75" x="453.125"/>
    <use xlink:href="#DejaVuSans-6c" x="516.503906"/>
    <use xlink:href="#DejaVuSans-61" x="544.287109"/>
    <use xlink:href="#DejaVuSans-74" x="605.566406"/>
    <use xlink:href="#DejaVuSans-69" x="644.775391"/>
    <use xlink:href="#DejaVuSans-76" x="672.558594"/>
    <use xlink:href="#DejaVuSans-65" x="731.738281"/>
    <use xlink:href="#DejaVuSans-20" x="793.261719"/>
    <use xlink:href="#DejaVuSans-52" x="825.048828"/>
    <use xlink:href="#DejaVuSans-65" x="890.03125"/>
    <use xlink:href="#DejaVuSans-77" x="951.554688"/>
    <use xlink:href="#DejaVuSans-61" x="1033.341797"/>
    <use xlink:href="#DejaVuSans-72" x="1094.621094"/>
    <use xlink:href="#DejaVuSans-64" x="1133.984375"/>
   </g>
  </g>
  <g id="legend_1">
   <g id="patch_12">
    <path d="M 230.599219 25.2 
L 417.400781 25.2 
Q 419.400781 25.2 419.400781 23.2 
L 419.400781 9.2 
Q 419.400781 7.2 417.400781 7.2 
L 230.599219 7.2 
Q 228.599219 7.2 228.599219 9.2 
L 228.599219 23.2 
Q 228.599219 25.2 230.599219 25.2 
z
" style="fill: #ffffff; opacity: 0.8; stroke: #cccccc; stroke-linejoin: miter"/>
   </g>
   <g id="line2d_32">
    <path d="M 232.599219 15.3 
L 242.599219 15.3 
L 252.599219 15.3 
" style="fill: none; stroke: #d62728; stroke-linecap: square"/>
   </g>
   <g id="text_32">
    <!-- Q_learning+$\phi$ -->
    <g transform="translate(260.599219 18.8) scale(0.1 -0.1)">
     <defs>
      <path id="DejaVuSans-51" d="M 2522 4238 
Q 1834 4238 1429 3725 
Q 1025 3213 1025 2328 
Q 1025 1447 1429 934 
Q 1834 422 2522 422 
Q 3209 422 3611 934 
Q 4013 1447 4013 2328 
Q 4013 3213 3611 3725 
Q 3209 4238 2522 4238 
z
M 3406 84 
L 4238 -825 
L 3475 -825 
L 2784 -78 
Q 2681 -84 2626 -87 
Q 2572 -91 2522 -91 
Q 1538 -91 948 567 
Q 359 1225 359 2328 
Q 359 3434 948 4092 
Q 1538 4750 2522 4750 
Q 3503 4750 4090 4092 
Q 4678 3434 4678 2328 
Q 4678 1516 4351 937 
Q 4025 359 3406 84 
z
" transform="scale(0.015625)"/>
      <path id="DejaVuSans-5f" d="M 3263 -1063 
L 3263 -1509 
L -63 -1509 
L -63 -1063 
L 3263 -1063 
z
" transform="scale(0.015625)"/>
      <path id="DejaVuSans-67" d="M 2906 1791 
Q 2906 2416 2648 2759 
Q 2391 3103 1925 3103 
Q 1463 3103 1205 2759 
Q 947 2416 947 1791 
Q 947 1169 1205 825 
Q 1463 481 1925 481 
Q 2391 481 2648 825 
Q 2906 1169 2906 1791 
z
M 3481 434 
Q 3481 -459 3084 -895 
Q 2688 -1331 1869 -1331 
Q 1566 -1331 1297 -1286 
Q 1028 -1241 775 -1147 
L 775 -588 
Q 1028 -725 1275 -790 
Q 1522 -856 1778 -856 
Q 2344 -856 2625 -561 
Q 2906 -266 2906 331 
L 2906 616 
Q 2728 306 2450 153 
Q 2172 0 1784 0 
Q 1141 0 747 490 
Q 353 981 353 1791 
Q 353 2603 747 3093 
Q 1141 3584 1784 3584 
Q 2172 3584 2450 3431 
Q 2728 3278 2906 2969 
L 2906 3500 
L 3481 3500 
L 3481 434 
z
" transform="scale(0.015625)"/>
      <path id="DejaVuSans-2b" d="M 2944 4013 
L 2944 2272 
L 4684 2272 
L 4684 1741 
L 2944 1741 
L 2944 0 
L 2419 0 
L 2419 1741 
L 678 1741 
L 678 2272 
L 2419 2272 
L 2419 4013 
L 2944 4013 
z
" transform="scale(0.015625)"/>
      <path id="DejaVuSans-Oblique-3d5" d="M 2991 4863 
L 2738 3572 
Q 3363 3572 3684 3094 
Q 4016 2606 3850 1747 
Q 3681 888 3159 400 
Q 2653 -78 2028 -78 
L 1784 -1331 
L 1213 -1331 
L 1456 -78 
Q 834 -78 509 400 
Q 178 888 347 1747 
Q 513 2606 1034 3094 
Q 1544 3572 2166 3572 
L 2419 4863 
L 2991 4863 
z
M 2128 434 
Q 2481 434 2784 756 
Q 3116 1116 3244 1747 
Q 3369 2372 3169 2738 
Q 2991 3059 2638 3059 
L 2128 434 
z
M 1556 434 
L 2066 3059 
Q 1716 3059 1413 2738 
Q 1072 2372 953 1747 
Q 834 1116 1028 756 
Q 1203 434 1556 434 
z
" transform="scale(0.015625)"/>
     </defs>
     <use xlink:href="#DejaVuSans-51" transform="translate(0 0.015625)"/>
     <use xlink:href="#DejaVuSans-5f" transform="translate(78.710938 0.015625)"/>
     <use xlink:href="#DejaVuSans-6c" transform="translate(128.710938 0.015625)"/>
     <use xlink:href="#DejaVuSans-65" transform="translate(156.494141 0.015625)"/>
     <use xlink:href="#DejaVuSans-61" transform="translate(218.017578 0.015625)"/>
     <use xlink:href="#DejaVuSans-72" transform="translate(279.296875 0.015625)"/>
     <use xlink:href="#DejaVuSans-6e" transform="translate(320.410156 0.015625)"/>
     <use xlink:href="#DejaVuSans-69" transform="translate(383.789062 0.015625)"/>
     <use xlink:href="#DejaVuSans-6e" transform="translate(411.572266 0.015625)"/>
     <use xlink:href="#DejaVuSans-67" transform="translate(474.951172 0.015625)"/>
     <use xlink:href="#DejaVuSans-2b" transform="translate(538.427734 0.015625)"/>
     <use xlink:href="#DejaVuSans-Oblique-3d5" transform="translate(622.216797 0.015625)"/>
    </g>
   </g>
   <g id="line2d_33">
    <path d="M 349.499219 15.3 
L 359.499219 15.3 
L 369.499219 15.3 
" style="fill: none; stroke: #2ca02c; stroke-linecap: square"/>
   </g>
   <g id="text_33">
    <!-- CA+RL  -->
    <g transform="translate(377.499219 18.8) scale(0.1 -0.1)">
     <defs>
      <path id="DejaVuSans-41" d="M 2188 4044 
L 1331 1722 
L 3047 1722 
L 2188 4044 
z
M 1831 4666 
L 2547 4666 
L 4325 0 
L 3669 0 
L 3244 1197 
L 1141 1197 
L 716 0 
L 50 0 
L 1831 4666 
z
" transform="scale(0.015625)"/>
     </defs>
     <use xlink:href="#DejaVuSans-43"/>
     <use xlink:href="#DejaVuSans-41" x="69.824219"/>
     <use xlink:href="#DejaVuSans-2b" x="138.232422"/>
     <use xlink:href="#DejaVuSans-52" x="222.021484"/>
     <use xlink:href="#DejaVuSans-4c" x="291.503906"/>
     <use xlink:href="#DejaVuSans-20" x="347.216797"/>
    </g>
   </g>
  </g>
 </g>
 <defs>
  <clipPath id="pf93932658f">
   <rect x="54" y="29.92" width="253.636364" height="97.02"/>
  </clipPath>
  <clipPath id="pf104013a19">
   <rect x="358.363636" y="29.92" width="253.636364" height="97.02"/>
  </clipPath>
 </defs>
</svg>
